<svg xmlns="http://www.w3.org/2000/svg" viewBox="0 0 256 256" role="img" aria-labelledby="title">
  <title id="title">Carousell</title>
  <rect width="256" height="256" fill="none"/>
  <path fill="#ff2636" d="M55 63h83v-8c0-9 7-16 16-16h23c9 0 16 7 16 16v8h8c22 0 40 18 40 40v81c0 22-18 40-40 40H55c-22 0-40-18-40-40v-81c0-22 18-40 40-40Z"/>
  <path fill="#fff" fill-rule="evenodd" d="M125 87c13 0 25 4 35 11 5 4 6 11 2 16l-9 12c-4 5-11 6-16 3a35 35 0 1 0 0 58c5-3 12-2 16 3l9 12c4 5 3 12-2 16a70 70 0 1 1-35-131Z"/>
  <g fill="#fff">
    <rect x="165" y="96" width="16" height="36" rx="8" transform="rotate(37 173 114)"/>
    <rect x="183" y="119" width="16" height="36" rx="8" transform="rotate(68 191 137)"/>
    <rect x="190" y="150" width="16" height="36" rx="8" transform="rotate(90 198 168)"/>
    <rect x="183" y="181" width="16" height="36" rx="8" transform="rotate(112 191 199)"/>
    <rect x="165" y="204" width="16" height="36" rx="8" transform="rotate(143 173 222)"/>
  </g>
</svg>
